<mxfile host="app.diagrams.net" agent="Mozilla/5.0 (Windows NT 10.0; Win64; x64) AppleWebKit/537.36 (KHTML, like Gecko) Chrome/134.0.0.0 Safari/537.36 Edg/134.0.0.0" version="26.1.3">
  <diagram name="Page-1" id="AOHIuOH3hhfgjNYh7_RF">
    <mxGraphModel dx="1747" dy="1940" grid="1" gridSize="10" guides="1" tooltips="1" connect="1" arrows="1" fold="1" page="1" pageScale="1" pageWidth="1169" pageHeight="827" math="0" shadow="0">
      <root>
        <mxCell id="0" />
        <mxCell id="1" parent="0" />
        <mxCell id="nSY8tY5ec68YNex5EOkZ-1" value="&lt;b&gt;sd &lt;/b&gt;if correct parameters" style="shape=umlFrame;whiteSpace=wrap;html=1;pointerEvents=0;recursiveResize=0;container=1;collapsible=0;width=140;height=30;strokeWidth=2;" vertex="1" parent="1">
          <mxGeometry x="130" y="-780" width="720" height="720" as="geometry" />
        </mxCell>
        <mxCell id="nSY8tY5ec68YNex5EOkZ-2" value="" style="html=1;verticalAlign=bottom;startArrow=none;endArrow=none;dashed=1;rounded=0;entryX=0.5;entryY=1;entryDx=0;entryDy=0;entryPerimeter=0;exitX=0.5;exitY=0.508;exitDx=0;exitDy=0;exitPerimeter=0;" edge="1" parent="nSY8tY5ec68YNex5EOkZ-1" source="nSY8tY5ec68YNex5EOkZ-57" target="nSY8tY5ec68YNex5EOkZ-15">
          <mxGeometry relative="1" as="geometry">
            <mxPoint x="280" y="700" as="sourcePoint" />
            <mxPoint x="290" y="90" as="targetPoint" />
          </mxGeometry>
        </mxCell>
        <mxCell id="nSY8tY5ec68YNex5EOkZ-3" value=": AddInternshipCommand" style="rounded=0;dashed=0;whiteSpace=wrap;html=1;" vertex="1" parent="nSY8tY5ec68YNex5EOkZ-1">
          <mxGeometry x="15" y="50" width="150" height="30" as="geometry" />
        </mxCell>
        <mxCell id="nSY8tY5ec68YNex5EOkZ-4" value="" style="html=1;verticalAlign=bottom;startArrow=none;endArrow=none;dashed=1;rounded=0;entryX=0.5;entryY=1;entryDx=0;entryDy=0;exitX=0.5;exitY=0;exitDx=0;exitDy=0;" edge="1" parent="nSY8tY5ec68YNex5EOkZ-1" source="nSY8tY5ec68YNex5EOkZ-5" target="nSY8tY5ec68YNex5EOkZ-3">
          <mxGeometry relative="1" as="geometry">
            <mxPoint x="90" y="150" as="sourcePoint" />
            <mxPoint x="440" y="-150" as="targetPoint" />
          </mxGeometry>
        </mxCell>
        <mxCell id="nSY8tY5ec68YNex5EOkZ-5" value="" style="whiteSpace=wrap;html=1;" vertex="1" parent="nSY8tY5ec68YNex5EOkZ-1">
          <mxGeometry x="85" y="110" width="10" height="590" as="geometry" />
        </mxCell>
        <mxCell id="nSY8tY5ec68YNex5EOkZ-6" value="" style="endArrow=open;startArrow=none;endFill=0;startFill=0;endSize=8;html=1;verticalAlign=bottom;labelBackgroundColor=none;strokeWidth=1;rounded=0;entryX=0;entryY=0;entryDx=0;entryDy=0;entryPerimeter=0;" edge="1" parent="nSY8tY5ec68YNex5EOkZ-1" target="nSY8tY5ec68YNex5EOkZ-15">
          <mxGeometry width="160" relative="1" as="geometry">
            <mxPoint x="95" y="120" as="sourcePoint" />
            <mxPoint x="400" y="120" as="targetPoint" />
          </mxGeometry>
        </mxCell>
        <mxCell id="nSY8tY5ec68YNex5EOkZ-7" value="&lt;font style=&quot;font-size: 9px;&quot;&gt;createInternship()&lt;/font&gt;" style="text;html=1;align=center;verticalAlign=middle;resizable=0;points=[];autosize=1;strokeColor=none;fillColor=none;" vertex="1" parent="nSY8tY5ec68YNex5EOkZ-1">
          <mxGeometry x="129.54999999999998" y="98" width="90" height="30" as="geometry" />
        </mxCell>
        <mxCell id="nSY8tY5ec68YNex5EOkZ-8" value="" style="html=1;verticalAlign=bottom;labelBackgroundColor=none;endArrow=open;endFill=0;dashed=1;rounded=0;exitX=-0.016;exitY=0.296;exitDx=0;exitDy=0;entryX=0.918;entryY=0.559;entryDx=0;entryDy=0;entryPerimeter=0;exitPerimeter=0;" edge="1" parent="nSY8tY5ec68YNex5EOkZ-1">
          <mxGeometry width="160" relative="1" as="geometry">
            <mxPoint x="274.99999999999994" y="183.3599999999999" as="sourcePoint" />
            <mxPoint x="95.16000000000005" y="183.02999999999997" as="targetPoint" />
          </mxGeometry>
        </mxCell>
        <mxCell id="nSY8tY5ec68YNex5EOkZ-9" value="&lt;font style=&quot;font-size: 9px;&quot;&gt;toAdd: Internship&lt;/font&gt;" style="text;html=1;align=center;verticalAlign=middle;resizable=0;points=[];autosize=1;strokeColor=none;fillColor=none;" vertex="1" parent="nSY8tY5ec68YNex5EOkZ-1">
          <mxGeometry x="125.97999999999999" y="160" width="90" height="30" as="geometry" />
        </mxCell>
        <mxCell id="nSY8tY5ec68YNex5EOkZ-10" value="" style="endArrow=open;startArrow=none;endFill=0;startFill=0;endSize=8;html=1;verticalAlign=bottom;labelBackgroundColor=none;strokeWidth=1;rounded=0;entryX=0;entryY=0;entryDx=0;entryDy=0;entryPerimeter=0;targetPerimeterSpacing=0;" edge="1" parent="nSY8tY5ec68YNex5EOkZ-1" target="nSY8tY5ec68YNex5EOkZ-24">
          <mxGeometry width="160" relative="1" as="geometry">
            <mxPoint x="95" y="210" as="sourcePoint" />
            <mxPoint x="581" y="210" as="targetPoint" />
          </mxGeometry>
        </mxCell>
        <mxCell id="nSY8tY5ec68YNex5EOkZ-11" value="&lt;font style=&quot;font-size: 9px;&quot;&gt;contains(toAdd)&lt;/font&gt;" style="text;html=1;align=center;verticalAlign=middle;resizable=0;points=[];autosize=1;strokeColor=none;fillColor=none;" vertex="1" parent="nSY8tY5ec68YNex5EOkZ-1">
          <mxGeometry x="290" y="187" width="90" height="30" as="geometry" />
        </mxCell>
        <mxCell id="nSY8tY5ec68YNex5EOkZ-12" value="" style="html=1;verticalAlign=bottom;labelBackgroundColor=none;endArrow=open;endFill=0;dashed=1;rounded=0;exitX=0.5;exitY=1;exitDx=0;exitDy=0;exitPerimeter=0;" edge="1" parent="nSY8tY5ec68YNex5EOkZ-1" source="nSY8tY5ec68YNex5EOkZ-24">
          <mxGeometry width="160" relative="1" as="geometry">
            <mxPoint x="585" y="230" as="sourcePoint" />
            <mxPoint x="95" y="230" as="targetPoint" />
          </mxGeometry>
        </mxCell>
        <mxCell id="nSY8tY5ec68YNex5EOkZ-13" value=": AddSoftwareInternshipCommand" style="rounded=0;dashed=0;whiteSpace=wrap;html=1;" vertex="1" parent="nSY8tY5ec68YNex5EOkZ-1">
          <mxGeometry x="180" y="50" width="200" height="30" as="geometry" />
        </mxCell>
        <mxCell id="nSY8tY5ec68YNex5EOkZ-14" value="" style="html=1;verticalAlign=bottom;startArrow=none;endArrow=none;dashed=1;rounded=0;entryX=0.5;entryY=1;entryDx=0;entryDy=0;exitX=0.5;exitY=0;exitDx=0;exitDy=0;" edge="1" parent="nSY8tY5ec68YNex5EOkZ-1" source="nSY8tY5ec68YNex5EOkZ-15" target="nSY8tY5ec68YNex5EOkZ-13">
          <mxGeometry relative="1" as="geometry">
            <mxPoint x="310" y="150" as="sourcePoint" />
            <mxPoint x="305" y="78" as="targetPoint" />
          </mxGeometry>
        </mxCell>
        <mxCell id="nSY8tY5ec68YNex5EOkZ-15" value="" style="whiteSpace=wrap;html=1;points=[[0,0,0,0,0],[0,0.25,0,0,0],[0,0.5,0,0,0],[0,0.75,0,0,0],[0,1,0,0,0],[0.25,0,0,0,0],[0.25,1,0,0,0],[0.5,0,0,0,0],[0.5,1,0,0,0],[0.75,0,0,0,0],[0.75,1,0,0,0],[1,0,0,0,0],[1,0.25,0,0,0],[1,0.5,0,0,0],[1,0.75,0,0,0],[1,1,0,0,0]];" vertex="1" parent="nSY8tY5ec68YNex5EOkZ-1">
          <mxGeometry x="275" y="120" width="10" height="80" as="geometry" />
        </mxCell>
        <mxCell id="nSY8tY5ec68YNex5EOkZ-16" value=":SoftwareInternship" style="rounded=0;dashed=0;whiteSpace=wrap;html=1;" vertex="1" parent="nSY8tY5ec68YNex5EOkZ-1">
          <mxGeometry x="420" y="120" width="140" height="30" as="geometry" />
        </mxCell>
        <mxCell id="nSY8tY5ec68YNex5EOkZ-17" value="" style="whiteSpace=wrap;html=1;" vertex="1" parent="nSY8tY5ec68YNex5EOkZ-1">
          <mxGeometry x="485" y="150" width="10" height="20" as="geometry" />
        </mxCell>
        <mxCell id="nSY8tY5ec68YNex5EOkZ-18" value="" style="endArrow=open;startArrow=none;endFill=0;startFill=0;endSize=8;html=1;verticalAlign=bottom;labelBackgroundColor=none;strokeWidth=1;rounded=0;entryX=0;entryY=0.5;entryDx=0;entryDy=0;exitX=1.069;exitY=0.18;exitDx=0;exitDy=0;exitPerimeter=0;" edge="1" parent="nSY8tY5ec68YNex5EOkZ-1" source="nSY8tY5ec68YNex5EOkZ-15" target="nSY8tY5ec68YNex5EOkZ-16">
          <mxGeometry width="160" relative="1" as="geometry">
            <mxPoint x="250" y="160" as="sourcePoint" />
            <mxPoint x="410" y="160" as="targetPoint" />
          </mxGeometry>
        </mxCell>
        <mxCell id="nSY8tY5ec68YNex5EOkZ-19" value="" style="html=1;verticalAlign=bottom;labelBackgroundColor=none;endArrow=open;endFill=0;dashed=1;rounded=0;exitX=0;exitY=1;exitDx=0;exitDy=0;entryX=1.012;entryY=0.625;entryDx=0;entryDy=0;entryPerimeter=0;" edge="1" parent="nSY8tY5ec68YNex5EOkZ-1" source="nSY8tY5ec68YNex5EOkZ-17" target="nSY8tY5ec68YNex5EOkZ-15">
          <mxGeometry width="160" relative="1" as="geometry">
            <mxPoint x="290" y="180" as="sourcePoint" />
            <mxPoint x="450" y="180" as="targetPoint" />
          </mxGeometry>
        </mxCell>
        <mxCell id="nSY8tY5ec68YNex5EOkZ-20" value="&lt;font style=&quot;font-size: 9px;&quot;&gt;new SoftwareInternship(...)&lt;/font&gt;" style="text;html=1;align=center;verticalAlign=middle;resizable=0;points=[];autosize=1;strokeColor=none;fillColor=none;" vertex="1" parent="nSY8tY5ec68YNex5EOkZ-1">
          <mxGeometry x="282" y="112" width="130" height="30" as="geometry" />
        </mxCell>
        <mxCell id="nSY8tY5ec68YNex5EOkZ-21" value="&lt;font style=&quot;font-size: 9px;&quot;&gt;toAdd: SoftwareInternship&lt;/font&gt;" style="text;html=1;align=center;verticalAlign=middle;resizable=0;points=[];autosize=1;strokeColor=none;fillColor=none;" vertex="1" parent="nSY8tY5ec68YNex5EOkZ-1">
          <mxGeometry x="310" y="147" width="130" height="30" as="geometry" />
        </mxCell>
        <mxCell id="nSY8tY5ec68YNex5EOkZ-22" value="internships: InternshipList" style="rounded=0;dashed=0;whiteSpace=wrap;html=1;" vertex="1" parent="nSY8tY5ec68YNex5EOkZ-1">
          <mxGeometry x="485" y="50" width="200" height="30" as="geometry" />
        </mxCell>
        <mxCell id="nSY8tY5ec68YNex5EOkZ-23" value="" style="html=1;verticalAlign=bottom;startArrow=none;endArrow=none;dashed=1;rounded=0;entryX=0.5;entryY=1;entryDx=0;entryDy=0;exitX=0.5;exitY=0;exitDx=0;exitDy=0;" edge="1" parent="nSY8tY5ec68YNex5EOkZ-1" source="nSY8tY5ec68YNex5EOkZ-24" target="nSY8tY5ec68YNex5EOkZ-22">
          <mxGeometry relative="1" as="geometry">
            <mxPoint x="615" y="150" as="sourcePoint" />
            <mxPoint x="610" y="78" as="targetPoint" />
          </mxGeometry>
        </mxCell>
        <mxCell id="nSY8tY5ec68YNex5EOkZ-24" value="" style="whiteSpace=wrap;html=1;points=[[0,0,0,0,0],[0,0.25,0,0,0],[0,0.5,0,0,0],[0,0.75,0,0,0],[0,1,0,0,0],[0.25,0,0,0,0],[0.25,1,0,0,0],[0.5,0,0,0,0],[0.5,1,0,0,0],[0.75,0,0,0,0],[0.75,1,0,0,0],[1,0,0,0,0],[1,0.25,0,0,0],[1,0.5,0,0,0],[1,0.75,0,0,0],[1,1,0,0,0]];" vertex="1" parent="nSY8tY5ec68YNex5EOkZ-1">
          <mxGeometry x="580" y="210" width="10" height="20" as="geometry" />
        </mxCell>
        <mxCell id="nSY8tY5ec68YNex5EOkZ-25" value="&lt;font style=&quot;font-size: 9px;&quot;&gt;: boolean&lt;/font&gt;" style="text;html=1;align=center;verticalAlign=middle;resizable=0;points=[];autosize=1;strokeColor=none;fillColor=none;" vertex="1" parent="nSY8tY5ec68YNex5EOkZ-1">
          <mxGeometry x="305" y="207" width="60" height="30" as="geometry" />
        </mxCell>
        <mxCell id="nSY8tY5ec68YNex5EOkZ-26" value="" style="endArrow=open;startArrow=none;endFill=0;startFill=0;endSize=8;html=1;verticalAlign=bottom;labelBackgroundColor=none;strokeWidth=1;rounded=0;exitX=1.045;exitY=0.355;exitDx=0;exitDy=0;entryX=0;entryY=0.5;entryDx=0;entryDy=0;exitPerimeter=0;" edge="1" parent="nSY8tY5ec68YNex5EOkZ-1" target="nSY8tY5ec68YNex5EOkZ-27">
          <mxGeometry width="160" relative="1" as="geometry">
            <mxPoint x="95" y="315" as="sourcePoint" />
            <mxPoint x="270" y="309.93" as="targetPoint" />
          </mxGeometry>
        </mxCell>
        <mxCell id="nSY8tY5ec68YNex5EOkZ-27" value="result: CommandResult()" style="rounded=0;dashed=0;whiteSpace=wrap;html=1;" vertex="1" parent="nSY8tY5ec68YNex5EOkZ-1">
          <mxGeometry x="240" y="300" width="140" height="30" as="geometry" />
        </mxCell>
        <mxCell id="nSY8tY5ec68YNex5EOkZ-28" value="" style="whiteSpace=wrap;html=1;" vertex="1" parent="nSY8tY5ec68YNex5EOkZ-1">
          <mxGeometry x="305" y="330" width="10" height="20" as="geometry" />
        </mxCell>
        <mxCell id="nSY8tY5ec68YNex5EOkZ-29" value="" style="html=1;verticalAlign=bottom;labelBackgroundColor=none;endArrow=open;endFill=0;dashed=1;rounded=0;exitX=0.5;exitY=1;exitDx=0;exitDy=0;entryX=0.918;entryY=0.559;entryDx=0;entryDy=0;entryPerimeter=0;" edge="1" parent="nSY8tY5ec68YNex5EOkZ-1" source="nSY8tY5ec68YNex5EOkZ-28">
          <mxGeometry width="160" relative="1" as="geometry">
            <mxPoint x="150" y="375" as="sourcePoint" />
            <mxPoint x="95" y="350" as="targetPoint" />
          </mxGeometry>
        </mxCell>
        <mxCell id="nSY8tY5ec68YNex5EOkZ-30" value="&lt;font style=&quot;font-size: 9px;&quot;&gt;result: CommandResult&lt;/font&gt;" style="text;html=1;align=center;verticalAlign=middle;resizable=0;points=[];autosize=1;strokeColor=none;fillColor=none;" vertex="1" parent="nSY8tY5ec68YNex5EOkZ-1">
          <mxGeometry x="110" y="327" width="120" height="30" as="geometry" />
        </mxCell>
        <mxCell id="nSY8tY5ec68YNex5EOkZ-31" value="" style="html=1;verticalAlign=bottom;startArrow=none;endArrow=none;dashed=1;rounded=0;entryX=0.5;entryY=1;entryDx=0;entryDy=0;exitX=0.498;exitY=0.483;exitDx=0;exitDy=0;exitPerimeter=0;" edge="1" parent="nSY8tY5ec68YNex5EOkZ-1" source="nSY8tY5ec68YNex5EOkZ-36" target="nSY8tY5ec68YNex5EOkZ-28">
          <mxGeometry relative="1" as="geometry">
            <mxPoint x="309.56999999999994" y="405" as="sourcePoint" />
            <mxPoint x="309.56999999999994" y="365" as="targetPoint" />
          </mxGeometry>
        </mxCell>
        <mxCell id="nSY8tY5ec68YNex5EOkZ-32" value="" style="whiteSpace=wrap;html=1;" vertex="1" parent="nSY8tY5ec68YNex5EOkZ-1">
          <mxGeometry x="305" y="373.01" width="10" height="20" as="geometry" />
        </mxCell>
        <mxCell id="nSY8tY5ec68YNex5EOkZ-33" value="" style="endArrow=open;startArrow=none;endFill=0;startFill=0;endSize=8;html=1;verticalAlign=bottom;labelBackgroundColor=none;strokeWidth=1;rounded=0;exitX=1.133;exitY=0.647;exitDx=0;exitDy=0;exitPerimeter=0;entryX=0;entryY=0;entryDx=0;entryDy=0;" edge="1" parent="nSY8tY5ec68YNex5EOkZ-1" target="nSY8tY5ec68YNex5EOkZ-32">
          <mxGeometry width="160" relative="1" as="geometry">
            <mxPoint x="95" y="373.0000000000001" as="sourcePoint" />
            <mxPoint x="250" y="373.01" as="targetPoint" />
          </mxGeometry>
        </mxCell>
        <mxCell id="nSY8tY5ec68YNex5EOkZ-34" value="&lt;font style=&quot;font-size: 9px;&quot;&gt;setSuccessful(false)&lt;/font&gt;" style="text;html=1;align=center;verticalAlign=middle;resizable=0;points=[];autosize=1;strokeColor=none;fillColor=none;" vertex="1" parent="nSY8tY5ec68YNex5EOkZ-1">
          <mxGeometry x="151" y="350" width="100" height="30" as="geometry" />
        </mxCell>
        <mxCell id="nSY8tY5ec68YNex5EOkZ-35" value="" style="html=1;verticalAlign=bottom;labelBackgroundColor=none;endArrow=open;endFill=0;dashed=1;rounded=0;exitX=0;exitY=1;exitDx=0;exitDy=0;entryX=1.067;entryY=0.812;entryDx=0;entryDy=0;entryPerimeter=0;" edge="1" parent="nSY8tY5ec68YNex5EOkZ-1" source="nSY8tY5ec68YNex5EOkZ-32">
          <mxGeometry width="160" relative="1" as="geometry">
            <mxPoint x="320" y="360" as="sourcePoint" />
            <mxPoint x="95" y="393" as="targetPoint" />
          </mxGeometry>
        </mxCell>
        <mxCell id="nSY8tY5ec68YNex5EOkZ-36" value="" style="shape=umlDestroy;dashed=0;targetShapes=umlLifeline;fillColor=#e51400;fontColor=#ffffff;strokeColor=#B20000;strokeWidth=3;" vertex="1" parent="nSY8tY5ec68YNex5EOkZ-1">
          <mxGeometry x="297.5" y="403.01" width="25" height="21.99" as="geometry" />
        </mxCell>
        <mxCell id="nSY8tY5ec68YNex5EOkZ-37" value="&lt;b&gt;alt&lt;/b&gt;" style="shape=umlFrame;whiteSpace=wrap;html=1;pointerEvents=0;recursiveResize=0;container=1;collapsible=0;width=75;height=30;fillColor=#eeeeee;strokeColor=#36393d;strokeWidth=2;" vertex="1" parent="nSY8tY5ec68YNex5EOkZ-1">
          <mxGeometry x="15" y="270" width="390" height="400" as="geometry" />
        </mxCell>
        <mxCell id="nSY8tY5ec68YNex5EOkZ-38" value="&lt;font style=&quot;font-size: 10px;&quot;&gt;&lt;b&gt;[internship already exists]&lt;/b&gt;&lt;/font&gt;" style="text;html=1;" vertex="1" parent="nSY8tY5ec68YNex5EOkZ-37">
          <mxGeometry width="100" height="20" relative="1" as="geometry">
            <mxPoint x="84" as="offset" />
          </mxGeometry>
        </mxCell>
        <mxCell id="nSY8tY5ec68YNex5EOkZ-39" value="" style="endArrow=open;startArrow=none;endFill=0;startFill=0;endSize=8;html=1;verticalAlign=bottom;labelBackgroundColor=none;strokeWidth=1;rounded=0;exitX=1.133;exitY=0.647;exitDx=0;exitDy=0;exitPerimeter=0;entryX=0;entryY=0;entryDx=0;entryDy=0;" edge="1" parent="nSY8tY5ec68YNex5EOkZ-37" target="nSY8tY5ec68YNex5EOkZ-56">
          <mxGeometry width="160" relative="1" as="geometry">
            <mxPoint x="80" y="200.0000000000001" as="sourcePoint" />
            <mxPoint x="555" y="201" as="targetPoint" />
          </mxGeometry>
        </mxCell>
        <mxCell id="nSY8tY5ec68YNex5EOkZ-40" value="&lt;font style=&quot;font-size: 10px;&quot;&gt;&lt;b&gt;[internship does not exist]&lt;/b&gt;&lt;/font&gt;" style="text;html=1;" vertex="1" parent="nSY8tY5ec68YNex5EOkZ-37">
          <mxGeometry x="8" y="167" width="100" height="20" as="geometry" />
        </mxCell>
        <mxCell id="nSY8tY5ec68YNex5EOkZ-41" value="" style="endArrow=none;startArrow=none;endFill=0;startFill=0;endSize=8;html=1;verticalAlign=bottom;labelBackgroundColor=none;strokeWidth=2;rounded=0;dashed=1;exitX=0;exitY=0.567;exitDx=0;exitDy=0;exitPerimeter=0;entryX=1;entryY=0.567;entryDx=0;entryDy=0;entryPerimeter=0;" edge="1" parent="nSY8tY5ec68YNex5EOkZ-37">
          <mxGeometry width="160" relative="1" as="geometry">
            <mxPoint y="166.99999999999994" as="sourcePoint" />
            <mxPoint x="389.9999999999998" y="166.99999999999994" as="targetPoint" />
          </mxGeometry>
        </mxCell>
        <mxCell id="nSY8tY5ec68YNex5EOkZ-42" value="" style="endArrow=open;startArrow=none;endFill=0;startFill=0;endSize=8;html=1;verticalAlign=bottom;labelBackgroundColor=none;strokeWidth=1;rounded=0;exitX=1.045;exitY=0.355;exitDx=0;exitDy=0;entryX=0;entryY=0.5;entryDx=0;entryDy=0;exitPerimeter=0;" edge="1" parent="nSY8tY5ec68YNex5EOkZ-37" target="nSY8tY5ec68YNex5EOkZ-43">
          <mxGeometry width="160" relative="1" as="geometry">
            <mxPoint x="80" y="285" as="sourcePoint" />
            <mxPoint x="255" y="279.93" as="targetPoint" />
          </mxGeometry>
        </mxCell>
        <mxCell id="nSY8tY5ec68YNex5EOkZ-43" value="result: CommandResult()" style="rounded=0;dashed=0;whiteSpace=wrap;html=1;" vertex="1" parent="nSY8tY5ec68YNex5EOkZ-37">
          <mxGeometry x="225" y="270" width="140" height="30" as="geometry" />
        </mxCell>
        <mxCell id="nSY8tY5ec68YNex5EOkZ-44" value="" style="whiteSpace=wrap;html=1;" vertex="1" parent="nSY8tY5ec68YNex5EOkZ-37">
          <mxGeometry x="290" y="300" width="10" height="20" as="geometry" />
        </mxCell>
        <mxCell id="nSY8tY5ec68YNex5EOkZ-45" value="" style="html=1;verticalAlign=bottom;labelBackgroundColor=none;endArrow=open;endFill=0;dashed=1;rounded=0;exitX=0.5;exitY=1;exitDx=0;exitDy=0;entryX=0.918;entryY=0.559;entryDx=0;entryDy=0;entryPerimeter=0;" edge="1" parent="nSY8tY5ec68YNex5EOkZ-37" source="nSY8tY5ec68YNex5EOkZ-44">
          <mxGeometry width="160" relative="1" as="geometry">
            <mxPoint x="135" y="345" as="sourcePoint" />
            <mxPoint x="80" y="320" as="targetPoint" />
          </mxGeometry>
        </mxCell>
        <mxCell id="nSY8tY5ec68YNex5EOkZ-46" value="&lt;font style=&quot;font-size: 9px;&quot;&gt;result: CommandResult&lt;/font&gt;" style="text;html=1;align=center;verticalAlign=middle;resizable=0;points=[];autosize=1;strokeColor=none;fillColor=none;" vertex="1" parent="nSY8tY5ec68YNex5EOkZ-37">
          <mxGeometry x="95" y="297" width="120" height="30" as="geometry" />
        </mxCell>
        <mxCell id="nSY8tY5ec68YNex5EOkZ-47" value="" style="html=1;verticalAlign=bottom;startArrow=none;endArrow=none;dashed=1;rounded=0;entryX=0.5;entryY=1;entryDx=0;entryDy=0;exitX=0.498;exitY=0.483;exitDx=0;exitDy=0;exitPerimeter=0;" edge="1" parent="nSY8tY5ec68YNex5EOkZ-37" source="nSY8tY5ec68YNex5EOkZ-52" target="nSY8tY5ec68YNex5EOkZ-44">
          <mxGeometry relative="1" as="geometry">
            <mxPoint x="294.56999999999994" y="375" as="sourcePoint" />
            <mxPoint x="294.56999999999994" y="335" as="targetPoint" />
          </mxGeometry>
        </mxCell>
        <mxCell id="nSY8tY5ec68YNex5EOkZ-48" value="" style="whiteSpace=wrap;html=1;" vertex="1" parent="nSY8tY5ec68YNex5EOkZ-37">
          <mxGeometry x="290" y="343.01" width="10" height="20" as="geometry" />
        </mxCell>
        <mxCell id="nSY8tY5ec68YNex5EOkZ-49" value="" style="endArrow=open;startArrow=none;endFill=0;startFill=0;endSize=8;html=1;verticalAlign=bottom;labelBackgroundColor=none;strokeWidth=1;rounded=0;exitX=1.133;exitY=0.647;exitDx=0;exitDy=0;exitPerimeter=0;entryX=0;entryY=0;entryDx=0;entryDy=0;" edge="1" parent="nSY8tY5ec68YNex5EOkZ-37" target="nSY8tY5ec68YNex5EOkZ-48">
          <mxGeometry width="160" relative="1" as="geometry">
            <mxPoint x="80" y="343.0000000000001" as="sourcePoint" />
            <mxPoint x="235" y="343.01" as="targetPoint" />
          </mxGeometry>
        </mxCell>
        <mxCell id="nSY8tY5ec68YNex5EOkZ-50" value="&lt;font style=&quot;font-size: 9px;&quot;&gt;setSuccessful(true)&lt;/font&gt;" style="text;html=1;align=center;verticalAlign=middle;resizable=0;points=[];autosize=1;strokeColor=none;fillColor=none;" vertex="1" parent="nSY8tY5ec68YNex5EOkZ-37">
          <mxGeometry x="136" y="320" width="100" height="30" as="geometry" />
        </mxCell>
        <mxCell id="nSY8tY5ec68YNex5EOkZ-51" value="" style="html=1;verticalAlign=bottom;labelBackgroundColor=none;endArrow=open;endFill=0;dashed=1;rounded=0;exitX=0;exitY=1;exitDx=0;exitDy=0;entryX=1.067;entryY=0.812;entryDx=0;entryDy=0;entryPerimeter=0;" edge="1" parent="nSY8tY5ec68YNex5EOkZ-37" source="nSY8tY5ec68YNex5EOkZ-48">
          <mxGeometry width="160" relative="1" as="geometry">
            <mxPoint x="305" y="330" as="sourcePoint" />
            <mxPoint x="80" y="363" as="targetPoint" />
          </mxGeometry>
        </mxCell>
        <mxCell id="nSY8tY5ec68YNex5EOkZ-52" value="" style="shape=umlDestroy;dashed=0;targetShapes=umlLifeline;fillColor=#e51400;fontColor=#ffffff;strokeColor=#B20000;strokeWidth=3;" vertex="1" parent="nSY8tY5ec68YNex5EOkZ-37">
          <mxGeometry x="282.5" y="373.01" width="25" height="21.99" as="geometry" />
        </mxCell>
        <mxCell id="nSY8tY5ec68YNex5EOkZ-53" value="&lt;font style=&quot;font-size: 9px;&quot;&gt;result: CommandResult&lt;/font&gt;" style="text;html=1;align=center;verticalAlign=middle;resizable=0;points=[];autosize=1;strokeColor=none;fillColor=none;" vertex="1" parent="nSY8tY5ec68YNex5EOkZ-37">
          <mxGeometry x="-45" y="116" width="120" height="30" as="geometry" />
        </mxCell>
        <mxCell id="nSY8tY5ec68YNex5EOkZ-54" value="&lt;font style=&quot;font-size: 9px;&quot;&gt;result: CommandResult&lt;/font&gt;" style="text;html=1;align=center;verticalAlign=middle;resizable=0;points=[];autosize=1;strokeColor=none;fillColor=none;" vertex="1" parent="nSY8tY5ec68YNex5EOkZ-37">
          <mxGeometry x="-43" y="358" width="120" height="30" as="geometry" />
        </mxCell>
        <mxCell id="nSY8tY5ec68YNex5EOkZ-55" value="" style="html=1;verticalAlign=bottom;startArrow=none;endArrow=none;dashed=1;rounded=0;entryX=0.5;entryY=1;entryDx=0;entryDy=0;entryPerimeter=0;exitX=0.502;exitY=0.491;exitDx=0;exitDy=0;exitPerimeter=0;" edge="1" parent="nSY8tY5ec68YNex5EOkZ-1" target="nSY8tY5ec68YNex5EOkZ-24">
          <mxGeometry relative="1" as="geometry">
            <mxPoint x="585.05" y="700.79709" as="sourcePoint" />
            <mxPoint x="500" y="180" as="targetPoint" />
          </mxGeometry>
        </mxCell>
        <mxCell id="nSY8tY5ec68YNex5EOkZ-56" value="" style="whiteSpace=wrap;html=1;" vertex="1" parent="nSY8tY5ec68YNex5EOkZ-1">
          <mxGeometry x="580" y="470" width="10" height="20" as="geometry" />
        </mxCell>
        <mxCell id="nSY8tY5ec68YNex5EOkZ-57" value="" style="shape=umlDestroy;dashed=0;targetShapes=umlLifeline;fillColor=#e51400;fontColor=#ffffff;strokeColor=#B20000;strokeWidth=3;" vertex="1" parent="nSY8tY5ec68YNex5EOkZ-1">
          <mxGeometry x="267.5" y="690" width="25" height="21.99" as="geometry" />
        </mxCell>
        <mxCell id="nSY8tY5ec68YNex5EOkZ-58" value="" style="html=1;verticalAlign=bottom;startArrow=none;endArrow=none;dashed=1;rounded=0;entryX=0.5;entryY=1;entryDx=0;entryDy=0;exitX=0.496;exitY=0.467;exitDx=0;exitDy=0;exitPerimeter=0;" edge="1" parent="nSY8tY5ec68YNex5EOkZ-1" target="nSY8tY5ec68YNex5EOkZ-17">
          <mxGeometry relative="1" as="geometry">
            <mxPoint x="489.89999999999986" y="700.2693300000001" as="sourcePoint" />
            <mxPoint x="290" y="210" as="targetPoint" />
          </mxGeometry>
        </mxCell>
        <mxCell id="nSY8tY5ec68YNex5EOkZ-59" value="" style="html=1;verticalAlign=bottom;labelBackgroundColor=none;endArrow=open;endFill=0;dashed=1;rounded=0;" edge="1" parent="1">
          <mxGeometry width="160" relative="1" as="geometry">
            <mxPoint x="215" y="-370" as="sourcePoint" />
            <mxPoint x="100" y="-370" as="targetPoint" />
          </mxGeometry>
        </mxCell>
        <mxCell id="nSY8tY5ec68YNex5EOkZ-60" value="&lt;font style=&quot;font-size: 9px;&quot;&gt;addInternship(toAdd)&lt;/font&gt;" style="text;html=1;align=center;verticalAlign=middle;resizable=0;points=[];autosize=1;strokeColor=none;fillColor=none;" vertex="1" parent="1">
          <mxGeometry x="255" y="-332" width="110" height="30" as="geometry" />
        </mxCell>
        <mxCell id="nSY8tY5ec68YNex5EOkZ-61" value="" style="html=1;verticalAlign=bottom;labelBackgroundColor=none;endArrow=open;endFill=0;dashed=1;rounded=0;exitX=0;exitY=1;exitDx=0;exitDy=0;" edge="1" parent="1" source="nSY8tY5ec68YNex5EOkZ-56">
          <mxGeometry width="160" relative="1" as="geometry">
            <mxPoint x="445" y="-377" as="sourcePoint" />
            <mxPoint x="225" y="-290" as="targetPoint" />
          </mxGeometry>
        </mxCell>
        <mxCell id="nSY8tY5ec68YNex5EOkZ-62" value="" style="html=1;verticalAlign=bottom;labelBackgroundColor=none;endArrow=open;endFill=0;dashed=1;rounded=0;" edge="1" parent="1">
          <mxGeometry width="160" relative="1" as="geometry">
            <mxPoint x="215" y="-128" as="sourcePoint" />
            <mxPoint x="100" y="-128" as="targetPoint" />
          </mxGeometry>
        </mxCell>
        <mxCell id="nSY8tY5ec68YNex5EOkZ-63" value="ref" style="shape=umlFrame;whiteSpace=wrap;html=1;pointerEvents=0;recursiveResize=0;container=1;collapsible=0;width=40;height=20;swimlaneFillColor=light-dark(#fad9d5, #ededed);strokeColor=light-dark(#ff0000, #ededed);" vertex="1" parent="1">
          <mxGeometry x="180" y="-280" width="330" height="30" as="geometry" />
        </mxCell>
        <mxCell id="nSY8tY5ec68YNex5EOkZ-64" value="save internships" style="text;html=1;align=center;verticalAlign=middle;resizable=0;points=[];autosize=1;strokeColor=none;fillColor=none;" vertex="1" parent="nSY8tY5ec68YNex5EOkZ-63">
          <mxGeometry x="45" y="-4" width="110" height="30" as="geometry" />
        </mxCell>
      </root>
    </mxGraphModel>
  </diagram>
</mxfile>
